<svg width="27" height="27" viewBox="0 0 27 27" fill="none" xmlns="http://www.w3.org/2000/svg">
<path fill-rule="evenodd" clip-rule="evenodd" d="M25.3124 13.5002C25.3124 13.2764 25.2235 13.0618 25.0653 12.9036C24.9071 12.7454 24.6924 12.6565 24.4687 12.6565H4.56798L9.87855 7.34759C9.957 7.26914 10.0192 7.17601 10.0617 7.07351C10.1041 6.97101 10.126 6.86115 10.126 6.75021C10.126 6.63927 10.1041 6.52941 10.0617 6.42691C10.0192 6.32442 9.957 6.23128 9.87855 6.15284C9.8001 6.07439 9.70697 6.01216 9.60447 5.9697C9.50197 5.92725 9.39211 5.9054 9.28117 5.9054C9.17023 5.9054 9.06037 5.92725 8.95787 5.9697C8.85538 6.01216 8.76224 6.07439 8.6838 6.15284L1.9338 12.9028C1.85522 12.9812 1.79288 13.0743 1.75034 13.1768C1.70781 13.2793 1.68591 13.3892 1.68591 13.5002C1.68591 13.6112 1.70781 13.7211 1.75034 13.8236C1.79288 13.9261 1.85522 14.0192 1.9338 14.0976L8.6838 20.8476C8.76224 20.926 8.85538 20.9883 8.95787 21.0307C9.06037 21.0732 9.17023 21.095 9.28117 21.095C9.39211 21.095 9.50197 21.0732 9.60447 21.0307C9.70697 20.9883 9.8001 20.926 9.87855 20.8476C9.957 20.7691 10.0192 20.676 10.0617 20.5735C10.1041 20.471 10.126 20.3612 10.126 20.2502C10.126 20.1393 10.1041 20.0294 10.0617 19.9269C10.0192 19.8244 9.957 19.7313 9.87855 19.6528L4.56798 14.344H24.4687C24.6924 14.344 24.9071 14.2551 25.0653 14.0968C25.2235 13.9386 25.3124 13.724 25.3124 13.5002Z" fill="#7E7E7E"/>
</svg>
