<svg width="238" height="264" viewBox="0 0 238 264" fill="none" xmlns="http://www.w3.org/2000/svg">
<mask id="path-1-inside-1_26_27" fill="white">
<path fill-rule="evenodd" clip-rule="evenodd" d="M44.4715 7L31 0L17.5285 7H3C1.34315 7 0 8.34315 0 10V261C0 262.657 1.34315 264 3.00001 264H235C236.657 264 238 262.657 238 261V10C238 8.34315 236.657 7 235 7H44.4715Z"/>
</mask>
<path fill-rule="evenodd" clip-rule="evenodd" d="M44.4715 7L31 0L17.5285 7H3C1.34315 7 0 8.34315 0 10V261C0 262.657 1.34315 264 3.00001 264H235C236.657 264 238 262.657 238 261V10C238 8.34315 236.657 7 235 7H44.4715Z" fill="white"/>
<path d="M31 0L31.4611 -0.887357L31 -1.12694L30.5389 -0.887357L31 0ZM44.4715 7L44.0104 7.88736L44.2272 8H44.4715V7ZM17.5285 7V8H17.7728L17.9896 7.88736L17.5285 7ZM30.5389 0.887357L44.0104 7.88736L44.9326 6.11264L31.4611 -0.887357L30.5389 0.887357ZM17.9896 7.88736L31.4611 0.887357L30.5389 -0.887357L17.0674 6.11264L17.9896 7.88736ZM3 8H17.5285V6H3V8ZM1 10C1 8.89543 1.89543 8 3 8V6C0.790861 6 -1 7.79086 -1 10H1ZM1 261V10H-1V261H1ZM3.00001 263C1.89543 263 1 262.105 1 261H-1C-1 263.209 0.790872 265 3.00001 265V263ZM235 263H3.00001V265H235V263ZM237 261C237 262.105 236.105 263 235 263V265C237.209 265 239 263.209 239 261H237ZM237 10V261H239V10H237ZM235 8C236.105 8 237 8.89543 237 10H239C239 7.79086 237.209 6 235 6V8ZM44.4715 8H235V6H44.4715V8Z" fill="#D9D9D9" mask="url(#path-1-inside-1_26_27)"/>
</svg>
