<svg width="238" height="304" viewBox="0 0 238 304" fill="none" xmlns="http://www.w3.org/2000/svg">
<mask id="path-1-inside-1_175_99" fill="white">
<path fill-rule="evenodd" clip-rule="evenodd" d="M44.4715 7L31 0L17.5285 7H3C1.34315 7 0 8.34315 0 10V301C0 302.657 1.34315 304 3.00001 304H235C236.657 304 238 302.657 238 301V10C238 8.34315 236.657 7 235 7H44.4715Z"/>
</mask>
<path fill-rule="evenodd" clip-rule="evenodd" d="M44.4715 7L31 0L17.5285 7H3C1.34315 7 0 8.34315 0 10V301C0 302.657 1.34315 304 3.00001 304H235C236.657 304 238 302.657 238 301V10C238 8.34315 236.657 7 235 7H44.4715Z" fill="white"/>
<path d="M31 0L31.4611 -0.887357L31 -1.12694L30.5389 -0.887357L31 0ZM44.4715 7L44.0104 7.88736L44.2272 8H44.4715V7ZM17.5285 7V8H17.7728L17.9896 7.88736L17.5285 7ZM30.5389 0.887357L44.0104 7.88736L44.9326 6.11264L31.4611 -0.887357L30.5389 0.887357ZM17.9896 7.88736L31.4611 0.887357L30.5389 -0.887357L17.0674 6.11264L17.9896 7.88736ZM3 8H17.5285V6H3V8ZM1 10C1 8.89543 1.89543 8 3 8V6C0.79086 6 -1 7.79087 -1 10H1ZM1 301V10H-1V301H1ZM3.00001 303C1.89543 303 1 302.105 1 301H-1C-1 303.209 0.790872 305 3.00001 305V303ZM235 303H3.00001V305H235V303ZM237 301C237 302.105 236.105 303 235 303V305C237.209 305 239 303.209 239 301H237ZM237 10V301H239V10H237ZM235 8C236.105 8 237 8.89543 237 10H239C239 7.79086 237.209 6 235 6V8ZM44.4715 8H235V6H44.4715V8Z" fill="#D9D9D9" mask="url(#path-1-inside-1_175_99)"/>
</svg>
