<svg width="18" height="18" viewBox="0 0 18 18" fill="none" xmlns="http://www.w3.org/2000/svg">
<path fill-rule="evenodd" clip-rule="evenodd" d="M1.85166 5.22666C1.90391 5.17427 1.96598 5.13271 2.03432 5.10435C2.10266 5.076 2.17592 5.0614 2.24991 5.0614C2.3239 5.0614 2.39716 5.076 2.46549 5.10435C2.53383 5.13271 2.59591 5.17427 2.64816 5.22666L8.99991 11.5795L15.3517 5.22666C15.404 5.17436 15.466 5.13287 15.5344 5.10457C15.6027 5.07626 15.6759 5.0617 15.7499 5.0617C15.8239 5.0617 15.8971 5.07626 15.9654 5.10457C16.0338 5.13287 16.0959 5.17436 16.1482 5.22666C16.2005 5.27896 16.2419 5.34104 16.2702 5.40938C16.2985 5.47771 16.3131 5.55094 16.3131 5.62491C16.3131 5.69887 16.2985 5.77211 16.2702 5.84044C16.2419 5.90877 16.2005 5.97086 16.1482 6.02316L9.39816 12.7732C9.3459 12.8255 9.28383 12.8671 9.21549 12.8955C9.14715 12.9238 9.07389 12.9384 8.99991 12.9384C8.92592 12.9384 8.85266 12.9238 8.78432 12.8955C8.71598 12.8671 8.65391 12.8255 8.60166 12.7732L1.85166 6.02316C1.79927 5.97091 1.75771 5.90883 1.72936 5.84049C1.701 5.77216 1.6864 5.69889 1.6864 5.62491C1.6864 5.55092 1.701 5.47766 1.72936 5.40932C1.75771 5.34098 1.79927 5.27891 1.85166 5.22666V5.22666Z" fill="black"/>
</svg>
