<svg width="45" height="45" viewBox="0 0 45 45" fill="none" xmlns="http://www.w3.org/2000/svg">
<path fill-rule="evenodd" clip-rule="evenodd" d="M13.0694 13.0667C13.2 12.9357 13.3552 12.8318 13.526 12.7609C13.6969 12.69 13.88 12.6535 14.065 12.6535C14.25 12.6535 14.4331 12.69 14.604 12.7609C14.7748 12.8318 14.93 12.9357 15.0606 13.0667L22.5025 20.5113L29.9444 13.0667C30.0751 12.9359 30.2304 12.8322 30.4012 12.7614C30.572 12.6907 30.7551 12.6543 30.94 12.6543C31.1249 12.6543 31.308 12.6907 31.4788 12.7614C31.6497 12.8322 31.8049 12.9359 31.9356 13.0667C32.0664 13.1974 32.1701 13.3526 32.2409 13.5235C32.3116 13.6943 32.348 13.8774 32.348 14.0623C32.348 14.2472 32.3116 14.4303 32.2409 14.6011C32.1701 14.7719 32.0664 14.9272 31.9356 15.0579L24.4909 22.4998L31.9356 29.9417C32.0664 30.0724 32.1701 30.2276 32.2409 30.3985C32.3116 30.5693 32.348 30.7524 32.348 30.9373C32.348 31.1222 32.3116 31.3053 32.2409 31.4761C32.1701 31.6469 32.0664 31.8022 31.9356 31.9329C31.8049 32.0637 31.6497 32.1674 31.4788 32.2381C31.308 32.3089 31.1249 32.3453 30.94 32.3453C30.7551 32.3453 30.572 32.3089 30.4012 32.2381C30.2304 32.1674 30.0751 32.0637 29.9444 31.9329L22.5025 24.4882L15.0606 31.9329C14.9299 32.0637 14.7747 32.1674 14.6038 32.2381C14.433 32.3089 14.2499 32.3453 14.065 32.3453C13.8801 32.3453 13.697 32.3089 13.5262 32.2381C13.3554 32.1674 13.2001 32.0637 13.0694 31.9329C12.9386 31.8022 12.8349 31.6469 12.7642 31.4761C12.6934 31.3053 12.657 31.1222 12.657 30.9373C12.657 30.7524 12.6934 30.5693 12.7642 30.3985C12.8349 30.2276 12.9386 30.0724 13.0694 29.9417L20.5141 22.4998L13.0694 15.0579C12.9384 14.9273 12.8345 14.7721 12.7636 14.6013C12.6927 14.4304 12.6562 14.2473 12.6562 14.0623C12.6562 13.8773 12.6927 13.6942 12.7636 13.5233C12.8345 13.3525 12.9384 13.1973 13.0694 13.0667Z" fill="black" fill-opacity="0.5"/>
</svg>
