<svg width="13" height="14" viewBox="0 0 13 14" fill="none" xmlns="http://www.w3.org/2000/svg">
<path fill-rule="evenodd" clip-rule="evenodd" d="M0 12.75C0 12.5511 0.0592633 12.3603 0.164753 12.2197C0.270242 12.079 0.413316 12 0.5625 12H11.8125C11.9617 12 12.1048 12.079 12.2102 12.2197C12.3157 12.3603 12.375 12.5511 12.375 12.75C12.375 12.9489 12.3157 13.1397 12.2102 13.2803C12.1048 13.421 11.9617 13.5 11.8125 13.5H0.5625C0.413316 13.5 0.270242 13.421 0.164753 13.2803C0.0592633 13.1397 0 12.9489 0 12.75ZM0 6.75C0 6.55109 0.0592633 6.36032 0.164753 6.21967C0.270242 6.07902 0.413316 6 0.5625 6H11.8125C11.9617 6 12.1048 6.07902 12.2102 6.21967C12.3157 6.36032 12.375 6.55109 12.375 6.75C12.375 6.94891 12.3157 7.13968 12.2102 7.28033C12.1048 7.42098 11.9617 7.5 11.8125 7.5H0.5625C0.413316 7.5 0.270242 7.42098 0.164753 7.28033C0.0592633 7.13968 0 6.94891 0 6.75ZM0 0.75C0 0.551088 0.0592633 0.360322 0.164753 0.21967C0.270242 0.0790178 0.413316 0 0.5625 0H11.8125C11.9617 0 12.1048 0.0790178 12.2102 0.21967C12.3157 0.360322 12.375 0.551088 12.375 0.75C12.375 0.948912 12.3157 1.13968 12.2102 1.28033C12.1048 1.42098 11.9617 1.5 11.8125 1.5H0.5625C0.413316 1.5 0.270242 1.42098 0.164753 1.28033C0.0592633 1.13968 0 0.948912 0 0.75Z" fill="#7E7E7E"/>
</svg>
