<svg width="15" height="15" viewBox="0 0 15 15" fill="none" xmlns="http://www.w3.org/2000/svg">
<g clip-path="url(#clip0_26_17)">
<path fill-rule="evenodd" clip-rule="evenodd" d="M9.78823 9.78957C9.8753 9.70241 9.97869 9.63326 10.0925 9.58608C10.2063 9.5389 10.3283 9.51462 10.4515 9.51462C10.5747 9.51462 10.6967 9.5389 10.8105 9.58608C10.9243 9.63326 11.0277 9.70241 11.1148 9.78957L14.7242 13.3989C14.9001 13.5747 14.999 13.8132 14.999 14.0619C14.9991 14.3106 14.9004 14.5491 14.7246 14.725C14.5488 14.901 14.3104 14.9998 14.0617 14.9999C13.813 15 13.5745 14.9013 13.3985 14.7255L9.78917 11.1161C9.702 11.0291 9.63285 10.9257 9.58567 10.8119C9.53849 10.6981 9.51421 10.5761 9.51421 10.4529C9.51421 10.3297 9.53849 10.2077 9.58567 10.0938C9.63285 9.98004 9.702 9.87664 9.78917 9.78957H9.78823Z" fill="#7E7E7E"/>
<path fill-rule="evenodd" clip-rule="evenodd" d="M6.09375 11.25C6.77088 11.25 7.44138 11.1166 8.06696 10.8575C8.69255 10.5984 9.26097 10.2186 9.73977 9.73977C10.2186 9.26097 10.5984 8.69255 10.8575 8.06696C11.1166 7.44138 11.25 6.77088 11.25 6.09375C11.25 5.41662 11.1166 4.74612 10.8575 4.12054C10.5984 3.49495 10.2186 2.92653 9.73977 2.44773C9.26097 1.96893 8.69255 1.58912 8.06696 1.33C7.44138 1.07087 6.77088 0.9375 6.09375 0.9375C4.72623 0.9375 3.41472 1.48075 2.44773 2.44773C1.48075 3.41472 0.9375 4.72623 0.9375 6.09375C0.9375 7.46127 1.48075 8.77279 2.44773 9.73977C3.41472 10.7068 4.72623 11.25 6.09375 11.25V11.25ZM12.1875 6.09375C12.1875 7.70991 11.5455 9.25988 10.4027 10.4027C9.25988 11.5455 7.70991 12.1875 6.09375 12.1875C4.47759 12.1875 2.92762 11.5455 1.78482 10.4027C0.642018 9.25988 0 7.70991 0 6.09375C0 4.47759 0.642018 2.92762 1.78482 1.78482C2.92762 0.642018 4.47759 0 6.09375 0C7.70991 0 9.25988 0.642018 10.4027 1.78482C11.5455 2.92762 12.1875 4.47759 12.1875 6.09375V6.09375Z" fill="#7E7E7E"/>
</g>
<defs>
<clipPath id="clip0_26_17">
<rect width="15" height="15" fill="white"/>
</clipPath>
</defs>
</svg>
